<svg width="80px" height="80px" viewBox="0 0 600 600" version="1.1" xmlns="http://www.w3.org/2000/svg"><g id="#ffffffff"><path fill="#d51200" opacity="1.00" d=" M 102.70 0.00 L 497.29 0.00 C 517.36 1.24 537.16 7.72 553.64 19.34 C 569.81 30.56 582.79 46.28 590.77 64.26 C 596.09 76.07 598.87 88.87 600.00 101.74 L 600.00 498.26 C 598.58 516.30 593.23 534.14 583.45 549.44 C 567.19 575.54 539.30 594.08 508.85 598.66 C 505.01 599.24 501.16 599.70 497.30 600.00 L 101.76 600.00 C 85.91 598.69 70.21 594.56 56.26 586.80 C 39.06 577.42 24.51 563.26 14.67 546.33 C 5.89 531.48 1.11 514.47 0.00 497.31 L 0.00 101.74 C 1.76 76.54 12.11 51.93 29.67 33.67 C 48.51 13.59 75.25 1.51 102.70 0.00 M 302.63 104.67 C 294.61 110.52 287.31 117.28 280.72 124.69 C 274.54 133.32 268.58 142.12 263.24 151.29 C 259.86 157.03 254.58 162.08 253.98 169.05 C 253.22 176.92 247.97 184.38 240.50 187.21 C 237.50 188.32 233.36 187.44 231.44 190.54 C 227.43 196.38 223.57 202.37 220.64 208.84 C 227.12 213.73 234.53 217.19 241.08 221.99 C 248.99 227.19 257.38 231.64 265.31 236.82 C 269.55 232.91 271.84 227.55 274.88 222.77 C 276.23 220.24 278.32 217.51 277.44 214.48 C 276.31 209.37 275.40 203.74 277.79 198.85 C 280.32 192.20 286.34 188.04 290.94 182.94 C 292.66 181.31 294.38 178.99 297.04 179.22 C 301.84 179.10 305.47 182.71 309.44 184.86 C 310.64 185.66 312.44 186.02 313.64 184.99 C 317.17 182.38 319.60 178.65 322.27 175.23 C 326.57 169.72 330.61 163.92 333.30 157.43 C 335.55 151.90 338.89 146.56 338.85 140.40 C 334.58 137.29 329.73 134.69 326.56 130.33 C 325.41 128.92 325.27 126.95 326.23 125.40 C 332.74 113.80 339.00 101.88 347.70 91.71 C 353.23 86.31 360.11 82.59 366.34 78.08 C 363.99 78.08 361.62 77.96 359.29 78.36 C 338.54 82.07 318.95 91.38 302.63 104.67 M 329.42 180.82 C 337.53 185.99 345.81 190.90 353.80 196.27 C 368.55 204.74 383.25 213.32 397.58 222.49 C 408.81 229.35 415.50 241.55 426.76 248.35 C 438.52 255.55 450.41 262.53 461.94 270.10 C 470.55 276.10 480.20 280.34 489.04 285.98 C 503.60 294.27 516.87 304.75 531.99 312.05 C 540.68 314.62 551.09 310.19 555.29 302.10 C 559.07 297.35 558.08 290.87 557.55 285.27 C 555.56 281.27 552.21 278.06 548.73 275.34 C 541.77 270.83 534.28 267.19 527.22 262.84 C 518.21 257.63 509.83 251.41 500.70 246.39 C 490.91 240.96 481.98 234.13 472.06 228.93 C 467.38 226.29 462.56 223.88 458.07 220.92 C 451.63 216.82 445.38 212.24 438.14 209.63 C 432.73 207.51 426.77 207.49 421.35 205.41 C 415.89 203.35 411.32 199.63 406.31 196.74 C 395.03 190.47 383.83 184.02 373.04 176.94 C 362.82 170.91 353.18 163.95 342.67 158.41 C 339.22 166.45 333.46 173.11 329.42 180.82 M 103.77 263.98 C 104.78 270.05 109.72 275.01 115.52 276.76 C 122.20 278.93 128.71 281.58 135.31 283.98 C 140.19 285.61 143.09 290.15 145.87 294.16 C 147.77 297.03 150.04 299.68 151.55 302.79 C 148.66 307.34 144.60 311.07 142.01 315.82 C 138.80 321.61 136.89 328.02 135.39 334.43 C 134.41 338.12 136.65 342.10 139.62 344.20 C 143.72 344.81 147.88 344.36 152.00 344.44 C 182.66 344.45 213.33 344.40 243.99 344.47 C 247.36 344.36 250.86 344.89 254.14 343.97 C 257.09 341.96 258.71 337.87 257.67 334.41 C 255.84 326.79 253.41 319.25 249.60 312.38 C 247.90 309.18 244.91 306.91 243.11 303.78 C 244.57 298.10 248.92 293.66 251.84 288.67 C 254.38 284.00 260.18 283.73 264.53 281.69 C 271.49 278.52 279.70 277.80 285.61 272.61 C 291.16 268.01 290.91 258.17 284.91 254.04 C 282.22 252.17 278.85 249.84 275.44 251.16 C 269.32 253.15 263.59 256.16 257.59 258.46 C 251.53 261.26 245.08 263.13 239.05 266.00 C 236.32 267.22 234.74 269.88 233.14 272.26 C 229.61 277.81 225.78 283.17 222.43 288.83 C 215.53 286.31 208.50 283.35 201.01 283.62 C 195.01 283.82 188.83 282.94 183.02 284.82 C 179.31 285.96 175.65 287.25 172.02 288.62 C 167.44 282.81 164.00 276.24 159.82 270.16 C 157.02 266.14 151.87 265.10 147.67 263.13 C 137.38 259.15 127.41 254.25 116.89 250.91 C 110.19 251.32 104.00 257.04 103.77 263.98 M 45.33 351.26 C 41.46 354.91 41.48 360.75 42.56 365.56 C 45.00 369.63 48.96 372.45 52.25 375.79 C 61.44 385.25 70.77 394.59 80.24 403.78 C 83.74 407.49 89.14 408.05 93.95 408.36 C 103.17 408.43 112.39 408.23 121.61 408.37 C 121.68 423.08 121.68 437.80 121.61 452.51 C 114.73 452.47 107.84 452.30 100.95 452.43 C 97.13 452.33 93.92 454.78 91.37 457.37 C 80.58 468.26 69.72 479.08 58.87 489.90 C 55.24 493.47 52.56 499.49 55.69 504.21 C 58.02 507.69 61.35 511.62 65.97 511.41 C 71.99 512.04 77.02 508.00 80.94 503.93 C 87.96 496.60 95.49 489.76 102.05 482.00 C 104.52 479.54 107.16 476.31 110.99 476.46 C 116.83 476.32 122.69 476.48 128.53 476.53 C 130.93 480.15 133.06 483.95 135.26 487.70 C 139.93 495.47 146.55 501.74 152.92 508.09 C 157.17 512.33 162.42 515.34 167.48 518.50 C 169.89 520.04 172.70 520.65 175.50 521.05 C 175.67 512.68 175.43 504.31 175.52 495.94 C 175.37 492.35 177.08 489.03 179.36 486.37 C 184.94 479.93 191.57 474.55 198.07 469.11 C 201.29 466.70 200.10 462.37 200.42 458.94 C 200.30 454.28 203.09 450.23 205.66 446.59 C 209.37 441.37 215.88 439.01 222.01 438.33 C 228.69 438.87 235.41 442.09 239.43 447.60 C 244.92 454.49 245.07 464.56 241.07 472.21 C 238.02 477.51 232.75 481.39 226.77 482.71 C 222.91 484.13 218.03 482.75 214.91 485.91 C 211.32 489.31 208.01 493.00 204.39 496.37 C 202.35 498.52 199.40 500.58 199.61 503.91 C 199.42 509.92 199.63 515.94 199.68 521.96 C 208.13 521.46 217.47 523.92 225.08 519.11 C 233.79 513.76 242.84 508.45 249.33 500.35 C 254.02 494.20 258.11 487.61 261.95 480.91 C 263.20 479.06 264.39 476.27 267.07 476.49 C 273.00 476.38 278.95 476.31 284.89 476.54 C 287.12 476.57 288.64 478.44 290.15 479.83 C 297.26 487.39 304.79 494.52 312.01 501.97 C 315.37 504.99 318.09 508.89 322.15 511.01 C 325.19 511.59 328.59 511.81 331.48 510.51 C 335.14 508.25 338.63 504.62 338.70 500.06 C 338.64 496.73 337.77 493.14 335.28 490.78 C 323.41 479.62 312.32 467.66 300.62 456.32 C 298.50 454.42 295.98 452.64 293.05 452.49 C 286.55 452.02 280.01 452.95 273.53 452.22 C 271.20 451.80 271.40 448.88 271.30 447.08 C 271.37 434.20 271.29 421.32 271.38 408.45 C 280.60 408.17 289.82 408.48 299.04 408.31 C 302.81 408.07 306.73 407.73 310.20 406.13 C 314.10 403.46 316.94 399.56 320.70 396.71 C 327.67 391.35 332.45 383.82 338.90 377.91 C 343.28 373.19 349.02 369.37 351.55 363.23 C 353.72 358.69 350.26 353.96 347.24 350.77 C 344.74 347.66 340.45 348.25 336.93 348.35 C 333.83 348.23 331.80 350.84 329.77 352.76 C 320.98 361.98 311.71 370.74 302.98 380.02 C 301.64 381.38 300.08 382.81 298.03 382.71 C 289.26 382.93 280.47 382.72 271.69 382.72 C 271.17 379.47 270.90 375.91 268.66 373.30 C 266.03 370.29 262.14 368.13 258.06 368.35 C 244.59 368.48 231.11 368.19 217.65 368.55 C 217.36 377.70 217.72 386.85 217.55 396.01 C 217.62 399.56 214.81 402.15 212.66 404.64 C 207.28 409.95 202.54 415.86 197.04 421.04 C 195.56 422.62 193.73 424.06 193.00 426.15 C 192.32 429.84 193.13 433.69 192.17 437.33 C 190.65 441.09 187.64 444.00 184.74 446.73 C 181.30 450.06 176.42 451.14 171.81 451.63 C 161.54 451.68 151.12 444.37 149.50 433.86 C 149.07 428.32 148.83 422.01 152.34 417.34 C 156.63 412.46 162.11 407.51 168.98 407.31 C 172.03 406.93 175.68 407.47 177.99 404.99 C 181.75 401.41 185.34 397.66 189.07 394.05 C 190.93 392.07 193.45 390.07 193.35 387.07 C 193.62 380.89 193.35 374.70 193.32 368.52 C 175.22 368.18 157.11 368.54 139.00 368.33 C 135.67 368.41 131.99 367.92 129.09 369.96 C 124.30 372.40 122.78 377.94 121.26 382.67 C 112.52 382.76 103.77 382.96 95.03 382.68 C 91.48 381.99 89.37 378.48 86.78 376.22 C 78.65 368.01 70.37 359.95 62.43 351.55 C 60.92 350.08 59.29 348.26 56.98 348.33 C 52.99 348.10 48.12 347.79 45.33 351.26 Z" /></g><g id="#d51200ff"><path fill="#ffffff" opacity="1.00" d=" M 302.63 104.67 C 318.95 91.38 338.54 82.07 359.29 78.36 C 361.62 77.96 363.99 78.08 366.34 78.08 C 360.11 82.59 353.23 86.31 347.70 91.71 C 339.00 101.88 332.74 113.80 326.23 125.40 C 325.27 126.95 325.41 128.92 326.56 130.33 C 329.73 134.69 334.58 137.29 338.85 140.40 C 338.89 146.56 335.55 151.90 333.30 157.43 C 330.61 163.92 326.57 169.72 322.27 175.23 C 319.60 178.65 317.17 182.38 313.64 184.99 C 312.44 186.02 310.64 185.66 309.44 184.86 C 305.47 182.71 301.84 179.10 297.04 179.22 C 294.38 178.99 292.66 181.31 290.94 182.94 C 286.34 188.04 280.32 192.20 277.79 198.85 C 275.40 203.74 276.31 209.37 277.44 214.48 C 278.32 217.51 276.23 220.24 274.88 222.77 C 271.84 227.55 269.55 232.91 265.31 236.82 C 257.38 231.64 248.99 227.19 241.08 221.99 C 234.53 217.19 227.12 213.73 220.64 208.84 C 223.57 202.37 227.43 196.38 231.44 190.54 C 233.36 187.44 237.50 188.32 240.50 187.21 C 247.97 184.38 253.22 176.92 253.98 169.05 C 254.58 162.08 259.86 157.03 263.24 151.29 C 268.58 142.12 274.54 133.32 280.72 124.69 C 287.31 117.28 294.61 110.52 302.63 104.67 Z" /><path fill="#ffffff" opacity="1.00" d=" M 329.42 180.82 C 333.46 173.11 339.22 166.45 342.67 158.41 C 353.18 163.95 362.82 170.91 373.04 176.94 C 383.83 184.02 395.03 190.47 406.31 196.74 C 411.32 199.63 415.89 203.35 421.35 205.41 C 426.77 207.49 432.73 207.51 438.14 209.63 C 445.38 212.24 451.63 216.82 458.07 220.92 C 462.56 223.88 467.38 226.29 472.06 228.93 C 481.98 234.13 490.91 240.96 500.70 246.39 C 509.83 251.41 518.21 257.63 527.22 262.84 C 534.28 267.19 541.77 270.83 548.73 275.34 C 552.21 278.06 555.56 281.27 557.55 285.27 C 558.08 290.87 559.07 297.35 555.29 302.10 C 551.09 310.19 540.68 314.62 531.99 312.05 C 516.87 304.75 503.60 294.27 489.04 285.98 C 480.20 280.34 470.55 276.10 461.94 270.10 C 450.41 262.53 438.52 255.55 426.76 248.35 C 415.50 241.55 408.81 229.35 397.58 222.49 C 383.25 213.32 368.55 204.74 353.80 196.27 C 345.81 190.90 337.53 185.99 329.42 180.82 Z" /><path fill="#ffffff" opacity="1.00" d=" M 103.77 263.98 C 104.00 257.04 110.19 251.32 116.89 250.91 C 127.41 254.25 137.38 259.15 147.67 263.13 C 151.87 265.10 157.02 266.14 159.82 270.16 C 164.00 276.24 167.44 282.81 172.02 288.62 C 175.65 287.25 179.31 285.96 183.02 284.82 C 188.83 282.94 195.01 283.82 201.01 283.62 C 208.50 283.35 215.53 286.31 222.43 288.83 C 225.78 283.17 229.61 277.81 233.14 272.26 C 234.74 269.88 236.32 267.22 239.05 266.00 C 245.08 263.13 251.53 261.26 257.59 258.46 C 263.59 256.16 269.32 253.15 275.44 251.16 C 278.85 249.84 282.22 252.17 284.91 254.04 C 290.91 258.17 291.16 268.01 285.61 272.61 C 279.70 277.80 271.49 278.52 264.53 281.69 C 260.18 283.73 254.38 284.00 251.84 288.67 C 248.92 293.66 244.57 298.10 243.11 303.78 C 244.91 306.91 247.90 309.18 249.60 312.38 C 253.41 319.25 255.84 326.79 257.67 334.41 C 258.71 337.87 257.09 341.96 254.14 343.97 C 250.86 344.89 247.36 344.36 243.99 344.47 C 213.33 344.40 182.66 344.45 152.00 344.44 C 147.88 344.36 143.72 344.81 139.62 344.20 C 136.65 342.10 134.41 338.12 135.39 334.43 C 136.89 328.02 138.80 321.61 142.01 315.82 C 144.60 311.07 148.66 307.34 151.55 302.79 C 150.04 299.68 147.77 297.03 145.87 294.16 C 143.09 290.15 140.19 285.61 135.31 283.98 C 128.71 281.58 122.20 278.93 115.52 276.76 C 109.72 275.01 104.78 270.05 103.77 263.98 Z" /><path fill="#ffffff" opacity="1.00" d=" M 45.33 351.26 C 48.12 347.79 52.99 348.10 56.98 348.33 C 59.29 348.26 60.92 350.08 62.43 351.55 C 70.37 359.95 78.65 368.01 86.78 376.22 C 89.37 378.48 91.48 381.99 95.03 382.68 C 103.77 382.96 112.52 382.76 121.26 382.67 C 122.78 377.94 124.30 372.40 129.09 369.96 C 131.99 367.92 135.67 368.41 139.00 368.33 C 157.11 368.54 175.22 368.18 193.32 368.52 C 193.35 374.70 193.62 380.89 193.35 387.07 C 193.45 390.07 190.93 392.07 189.07 394.05 C 185.34 397.66 181.75 401.41 177.99 404.99 C 175.68 407.47 172.03 406.93 168.98 407.31 C 162.11 407.51 156.63 412.46 152.34 417.34 C 148.83 422.01 149.07 428.32 149.50 433.86 C 151.12 444.37 161.54 451.68 171.81 451.63 C 176.42 451.14 181.30 450.06 184.74 446.73 C 187.64 444.00 190.65 441.09 192.17 437.33 C 193.13 433.69 192.32 429.84 193.00 426.15 C 193.73 424.06 195.56 422.62 197.04 421.04 C 202.54 415.86 207.28 409.95 212.66 404.64 C 214.81 402.15 217.62 399.56 217.55 396.01 C 217.72 386.85 217.36 377.70 217.65 368.55 C 231.11 368.19 244.59 368.48 258.06 368.35 C 262.14 368.13 266.03 370.29 268.66 373.30 C 270.90 375.91 271.17 379.47 271.69 382.72 C 280.47 382.72 289.26 382.93 298.03 382.71 C 300.08 382.81 301.64 381.38 302.98 380.02 C 311.71 370.74 320.98 361.98 329.77 352.76 C 331.80 350.84 333.83 348.23 336.93 348.35 C 340.45 348.25 344.74 347.66 347.24 350.77 C 350.26 353.96 353.72 358.69 351.55 363.23 C 349.02 369.37 343.28 373.19 338.90 377.91 C 332.45 383.82 327.67 391.35 320.70 396.71 C 316.94 399.56 314.10 403.46 310.20 406.13 C 306.73 407.73 302.81 408.07 299.04 408.31 C 289.82 408.48 280.60 408.17 271.38 408.45 C 271.29 421.32 271.37 434.20 271.30 447.08 C 271.40 448.88 271.20 451.80 273.53 452.22 C 280.01 452.95 286.55 452.02 293.05 452.49 C 295.98 452.64 298.50 454.42 300.62 456.32 C 312.32 467.66 323.41 479.62 335.28 490.78 C 337.77 493.14 338.64 496.73 338.70 500.06 C 338.63 504.62 335.14 508.25 331.48 510.51 C 328.59 511.81 325.19 511.59 322.15 511.01 C 318.09 508.89 315.37 504.99 312.01 501.97 C 304.79 494.52 297.26 487.39 290.15 479.83 C 288.64 478.44 287.12 476.57 284.89 476.54 C 278.95 476.31 273.00 476.38 267.07 476.49 C 264.39 476.27 263.20 479.06 261.95 480.91 C 258.11 487.61 254.02 494.20 249.33 500.35 C 242.84 508.45 233.79 513.76 225.08 519.11 C 217.47 523.92 208.13 521.46 199.68 521.96 C 199.63 515.94 199.42 509.92 199.61 503.91 C 199.40 500.58 202.35 498.52 204.39 496.37 C 208.01 493.00 211.32 489.31 214.91 485.91 C 218.03 482.75 222.91 484.13 226.77 482.71 C 232.75 481.39 238.02 477.51 241.07 472.21 C 245.07 464.56 244.92 454.49 239.43 447.60 C 235.41 442.09 228.69 438.87 222.01 438.33 C 215.88 439.01 209.37 441.37 205.66 446.59 C 203.09 450.23 200.30 454.28 200.42 458.94 C 200.10 462.37 201.29 466.70 198.07 469.11 C 191.57 474.55 184.94 479.93 179.36 486.37 C 177.08 489.03 175.37 492.35 175.52 495.94 C 175.43 504.31 175.67 512.68 175.50 521.05 C 172.70 520.65 169.89 520.04 167.48 518.50 C 162.42 515.34 157.17 512.33 152.92 508.09 C 146.55 501.74 139.93 495.47 135.26 487.70 C 133.06 483.95 130.93 480.15 128.53 476.53 C 122.69 476.48 116.83 476.32 110.99 476.46 C 107.16 476.31 104.52 479.54 102.05 482.00 C 95.49 489.76 87.96 496.60 80.94 503.93 C 77.02 508.00 71.99 512.04 65.97 511.41 C 61.35 511.62 58.02 507.69 55.69 504.21 C 52.56 499.49 55.24 493.47 58.87 489.90 C 69.72 479.08 80.58 468.26 91.37 457.37 C 93.92 454.78 97.13 452.33 100.95 452.43 C 107.84 452.30 114.73 452.47 121.61 452.51 C 121.68 437.80 121.68 423.08 121.61 408.37 C 112.39 408.23 103.17 408.43 93.95 408.36 C 89.14 408.05 83.74 407.49 80.24 403.78 C 70.77 394.59 61.44 385.25 52.25 375.79 C 48.96 372.45 45.00 369.63 42.56 365.56 C 41.48 360.75 41.46 354.91 45.33 351.26 Z" /></g></svg>