<svg width="30px" height="30px" viewBox="0 0 600 600" version="1.1" xmlns="http://www.w3.org/2000/svg"><g id="#ffffffff"><path fill="#ffffff" opacity="1.00" d=" M 367.90 81.97 C 370.55 80.60 373.61 81.05 376.49 81.00 C 369.93 87.04 361.83 91.15 355.63 97.60 C 353.52 99.87 351.90 102.53 349.90 104.89 C 346.43 108.91 344.29 113.85 341.10 118.07 C 338.88 120.99 337.69 124.51 335.82 127.64 C 333.91 131.56 331.00 134.94 329.40 139.01 C 329.70 140.64 331.02 141.80 332.03 143.03 C 335.88 146.91 339.87 150.79 344.78 153.33 C 345.83 160.57 341.17 166.54 338.99 173.06 C 336.65 180.15 331.94 186.02 328.20 192.37 C 324.49 196.93 321.05 201.83 316.55 205.67 C 314.31 206.74 311.05 206.70 309.27 204.71 C 305.81 201.49 301.40 199.57 296.90 198.28 C 293.98 199.07 291.94 201.81 289.92 203.95 C 284.68 210.11 277.10 214.49 273.87 222.18 C 270.98 228.05 272.30 234.88 273.38 241.05 C 274.05 245.25 271.66 249.09 269.45 252.46 C 266.32 256.76 263.87 261.50 261.30 266.14 C 256.17 265.05 252.39 261.18 247.66 259.18 C 244.38 257.66 241.92 254.76 238.44 253.59 C 233.96 252.14 230.93 248.35 227.01 245.95 C 220.50 241.90 213.64 238.37 207.69 233.48 C 212.49 226.23 216.20 218.27 221.41 211.26 C 224.65 210.45 228.47 211.57 231.20 209.20 C 235.15 206.23 240.20 204.15 242.44 199.45 C 244.11 196.27 246.03 193.21 247.42 189.90 C 247.85 187.10 247.03 184.05 248.41 181.44 C 250.92 176.18 255.29 172.13 257.93 166.93 C 259.78 163.75 260.84 160.11 263.28 157.29 C 270.30 148.57 274.75 137.81 283.26 130.31 C 290.05 123.37 297.06 116.57 305.17 111.18 C 310.13 107.41 315.27 103.91 320.38 100.35 C 330.86 94.20 342.36 90.12 353.56 85.50 C 358.24 83.96 363.38 84.08 367.90 81.97 Z" /><path fill="#ffffff" opacity="1.00" d=" M 335.10 200.65 C 339.79 192.07 346.87 184.89 350.03 175.48 C 353.64 177.24 357.20 179.14 360.44 181.52 C 363.80 183.98 367.86 185.25 371.17 187.79 C 375.03 190.69 379.19 193.11 383.37 195.51 C 388.01 198.12 392.03 201.68 396.76 204.13 C 405.78 209.07 414.43 214.66 423.50 219.52 C 430.73 223.63 437.25 229.20 445.42 231.43 C 453.71 233.51 462.43 234.65 469.99 238.91 C 476.64 242.82 483.09 247.04 489.49 251.33 C 506.41 260.49 522.80 270.59 538.96 281.03 C 546.34 285.63 554.10 289.63 561.17 294.73 C 571.02 300.20 580.65 306.08 590.39 311.76 C 594.35 314.19 597.19 317.97 600.00 321.59 L 600.00 339.04 C 597.40 343.24 596.04 349.09 590.98 351.03 C 586.49 352.78 581.93 354.92 576.99 354.71 C 568.14 355.30 561.80 348.07 554.22 344.79 C 547.09 340.35 540.06 335.73 533.12 331.00 C 521.66 324.44 510.61 317.19 498.76 311.32 C 490.94 306.92 484.18 300.86 476.12 296.87 C 465.14 289.80 453.87 283.17 442.79 276.27 C 432.23 267.57 424.22 255.88 412.39 248.71 C 396.62 238.61 380.65 228.80 364.28 219.71 C 354.75 213.07 344.40 207.65 335.10 200.65 Z" /><path fill="#ffffff" opacity="1.00" d=" M 79.86 285.61 C 82.39 284.24 85.33 282.29 88.25 283.84 C 97.99 288.25 107.95 292.13 117.86 296.13 C 126.08 298.91 135.54 302.12 139.55 310.54 C 143.37 316.22 145.96 322.81 151.00 327.58 C 157.89 325.65 164.65 322.23 171.99 322.93 C 179.00 323.37 186.01 322.81 193.01 322.87 C 198.70 324.09 204.29 325.84 209.67 328.08 C 214.96 319.63 220.40 311.27 226.18 303.16 C 228.88 300.36 233.02 299.92 236.39 298.25 C 240.09 296.38 244.43 296.20 247.88 293.79 C 251.27 291.46 255.44 290.92 259.06 289.09 C 263.63 286.94 268.18 284.48 273.12 283.32 C 281.06 283.28 288.62 290.94 287.53 299.06 C 287.33 306.47 280.36 311.62 273.73 313.39 C 264.99 315.55 257.28 320.51 248.55 322.61 C 241.84 328.75 237.66 337.03 232.38 344.33 C 235.51 347.92 239.72 350.79 241.47 355.40 C 244.16 362.26 247.36 369.01 248.79 376.30 C 249.21 378.67 250.52 380.75 251.23 383.03 C 250.46 385.75 248.91 388.19 247.44 390.58 C 246.84 390.65 245.62 390.77 245.01 390.84 C 200.39 390.80 155.77 390.74 111.15 390.87 C 110.15 388.27 108.55 385.80 108.28 382.99 C 110.36 370.77 115.38 358.95 123.07 349.19 C 124.25 347.35 125.57 345.60 126.66 343.72 C 124.23 338.59 120.73 334.08 117.59 329.37 C 115.05 325.86 111.85 322.41 107.46 321.39 C 99.82 319.46 93.21 314.73 85.45 313.22 C 83.08 312.66 80.54 312.13 78.82 310.24 C 75.19 306.80 71.59 302.35 71.31 297.19 C 72.81 292.60 75.30 287.78 79.86 285.61 Z" /><path fill="#ffffff" opacity="1.00" d=" M 4.43 399.45 C 8.25 397.36 12.81 397.58 17.02 397.83 C 19.72 397.81 21.49 400.07 23.30 401.74 C 33.97 412.73 44.99 423.38 55.68 434.35 C 57.73 436.29 59.84 438.90 62.97 438.70 C 72.21 438.82 81.47 438.71 90.71 438.64 C 92.73 433.88 94.32 428.72 97.99 424.92 C 99.91 423.09 102.11 421.04 104.97 421.23 C 128.40 421.18 151.83 421.26 175.26 421.21 C 175.28 427.84 175.36 434.46 175.35 441.09 C 175.24 443.08 175.43 445.37 174.01 446.99 C 169.14 452.46 163.63 457.32 158.42 462.48 C 155.42 465.36 150.94 464.00 147.23 464.72 C 138.50 466.75 131.16 472.71 125.94 479.82 C 123.94 484.89 121.81 490.34 122.87 495.89 C 123.67 498.88 125.38 501.52 126.84 504.23 C 131.46 512.47 140.56 517.56 149.82 518.45 C 153.81 517.77 157.87 517.07 161.59 515.43 C 164.85 513.51 167.23 510.49 169.95 507.92 C 172.84 505.16 175.08 501.71 176.18 497.86 C 176.82 494.11 176.02 490.28 176.65 486.54 C 177.96 484.28 179.96 482.55 181.72 480.67 C 184.90 477.52 187.53 473.88 190.67 470.70 C 195.21 465.94 200.48 461.72 203.79 455.94 C 204.75 454.15 204.51 452.03 204.61 450.08 C 204.55 440.45 204.52 430.83 204.57 421.20 C 221.07 421.26 237.58 421.19 254.08 421.21 C 257.70 421.00 260.75 423.39 263.14 425.84 C 265.71 429.51 265.98 434.20 267.88 438.18 C 272.83 439.28 277.97 438.56 283.00 438.72 C 288.13 438.52 293.36 439.29 298.42 438.28 C 302.44 435.80 305.23 431.86 308.62 428.66 C 318.23 419.27 327.57 409.61 337.10 400.15 C 340.40 396.56 345.76 397.94 350.08 397.77 C 353.84 397.46 356.75 400.37 358.49 403.38 C 360.68 408.30 361.23 414.45 357.95 419.05 C 352.41 425.78 345.38 431.07 339.68 437.66 C 332.71 446.01 325.03 453.72 316.61 460.61 C 313.21 464.47 307.92 465.43 303.02 465.60 C 294.00 465.74 284.97 465.47 275.94 465.60 C 272.61 465.63 269.46 466.79 266.35 467.85 C 266.50 483.23 266.31 498.62 266.41 514.01 C 266.08 516.69 268.25 519.24 270.98 519.26 C 278.57 519.82 286.20 518.85 293.77 519.56 C 297.29 520.41 300.45 522.48 303.05 524.96 C 315.34 537.34 327.67 549.69 340.06 561.97 C 346.64 568.01 346.70 580.77 338.50 585.51 C 333.90 586.44 329.02 586.41 324.42 585.56 C 320.09 582.68 316.91 578.41 312.98 575.04 C 306.68 568.35 300.03 562.02 293.55 555.50 C 289.96 551.94 286.79 547.48 281.94 545.62 C 275.64 545.09 269.27 545.26 262.96 545.51 C 258.77 545.72 256.62 549.80 254.92 553.07 C 251.57 559.75 247.22 565.84 243.03 572.00 C 237.71 579.33 230.66 585.28 222.94 589.95 C 217.24 593.93 211.10 597.20 204.75 600.00 L 183.46 600.00 C 183.51 593.30 183.45 586.60 183.41 579.90 C 183.51 577.81 183.18 575.40 184.75 573.74 C 189.97 567.67 196.59 562.98 201.56 556.66 C 205.48 556.53 209.59 557.21 213.30 555.63 C 217.86 553.74 222.88 552.10 226.12 548.16 C 231.41 542.44 236.35 535.22 236.07 527.13 C 234.25 518.72 229.37 510.84 222.37 505.79 C 217.14 503.43 211.18 499.93 205.33 502.22 C 196.72 504.49 189.71 510.94 185.39 518.55 C 182.21 523.82 184.12 530.13 183.22 535.88 C 182.18 538.20 179.76 539.46 177.81 540.94 C 171.65 544.91 166.99 550.67 161.70 555.65 C 158.34 559.06 154.39 562.86 154.29 567.98 C 154.08 578.03 154.50 588.09 154.12 598.15 C 151.19 597.69 148.19 597.13 145.68 595.45 C 139.38 591.46 132.37 588.34 127.15 582.87 C 122.69 578.28 117.79 574.02 114.21 568.66 C 111.78 565.17 108.92 561.96 107.02 558.12 C 104.51 553.67 102.40 548.50 97.82 545.76 C 93.26 544.95 88.58 545.45 83.97 545.32 C 81.53 545.46 78.79 545.03 76.65 546.50 C 73.50 548.67 70.58 551.21 68.06 554.09 C 61.75 561.74 54.25 568.27 47.42 575.44 C 43.23 579.67 39.02 584.65 32.88 585.84 C 28.78 586.21 24.51 586.50 20.50 585.43 C 13.37 581.94 12.39 572.18 15.90 565.76 C 18.73 560.81 23.81 557.79 27.49 553.56 C 32.64 547.68 38.64 542.65 43.93 536.92 C 48.33 532.30 52.99 527.93 57.60 523.52 C 60.27 521.39 63.40 519.34 66.94 519.37 C 74.59 519.08 82.27 519.77 89.90 519.21 C 92.55 519.07 92.39 515.96 92.42 514.05 C 92.34 499.68 92.44 485.31 92.38 470.95 C 93.07 466.89 88.20 465.63 85.06 465.61 C 76.87 465.64 68.62 465.15 60.48 466.32 C 56.20 466.83 52.01 465.36 47.92 464.31 C 44.71 463.53 42.56 460.87 40.31 458.66 C 27.02 444.89 12.98 431.85 0.00 417.79 L 0.00 405.67 C 1.35 403.52 2.43 401.08 4.43 399.45 Z" /></g></svg>